<?xml version="1.0" standalone="no"?>
<!DOCTYPE svg PUBLIC "-//W3C//DTD SVG 20010904//EN"
 "http://www.w3.org/TR/2001/REC-SVG-20010904/DTD/svg10.dtd">
<svg version="1.0" xmlns="http://www.w3.org/2000/svg"
 width="512.000000pt" height="512.000000pt" viewBox="0 0 512.000000 512.000000"
 preserveAspectRatio="xMidYMid meet">
<metadata>
Created by potrace 1.16, written by Peter Selinger 2001-2019
</metadata>
<g transform="translate(0.000000,512.000000) scale(0.100000,-0.100000)"
fill="#000000" stroke="none">
<path d="M2395 4941 c-205 -60 -367 -225 -420 -428 -20 -75 -19 -229 1 -306
52 -202 219 -373 417 -427 l59 -16 -105 -26 c-329 -81 -580 -329 -663 -655
-23 -90 -24 -111 -24 -383 l0 -287 26 -27 27 -26 847 0 847 0 27 26 26 27 0
287 c0 271 -1 293 -24 383 -83 326 -333 573 -663 655 l-105 26 59 16 c201 56
364 223 417 427 21 78 21 228 0 306 -54 208 -223 377 -431 431 -82 21 -240 20
-318 -3z m341 -225 c297 -148 295 -565 -4 -713 -72 -36 -81 -38 -171 -38 -87
0 -102 3 -161 31 -95 46 -153 101 -197 192 -36 72 -38 81 -38 172 0 91 2 100
38 172 41 84 99 143 179 184 69 35 113 44 202 39 66 -3 91 -9 152 -39z m-38
-1172 c44 -8 118 -35 172 -61 81 -39 108 -58 182 -133 72 -72 94 -103 131
-181 63 -130 77 -208 77 -429 l0 -180 -700 0 -700 0 0 180 c0 223 14 300 77
430 39 80 59 109 132 181 72 71 103 94 182 132 150 74 291 93 447 61z"/>
<path d="M263 3941 c-105 -39 -180 -107 -231 -211 l-27 -55 -3 -804 c-3 -893
-3 -891 63 -1088 66 -198 159 -348 310 -499 132 -133 233 -198 557 -360 l268
-134 0 -289 0 -288 26 -27 27 -26 577 0 577 0 27 26 26 27 0 709 c0 788 2 766
-67 906 -23 46 -61 100 -103 145 -110 117 -207 165 -392 192 -194 29 -347 77
-448 140 -25 15 -128 110 -230 210 -205 201 -251 232 -359 242 l-60 6 -3 456
-3 456 -29 60 c-38 77 -114 153 -191 190 -52 26 -73 30 -160 33 -79 2 -111 -2
-152 -17z m201 -193 c52 -16 108 -72 124 -124 14 -49 18 -924 3 -924 -5 0 -32
-21 -60 -46 -34 -31 -63 -70 -88 -122 -36 -71 -38 -82 -38 -166 0 -100 17
-161 66 -231 15 -22 153 -165 306 -317 278 -277 279 -278 322 -278 58 0 101
41 101 96 0 36 -13 51 -288 328 -298 300 -312 319 -312 396 0 104 96 200 200
200 73 0 102 -21 300 -215 202 -198 249 -234 389 -290 78 -32 227 -69 359 -90
150 -23 205 -47 278 -119 65 -66 105 -138 123 -224 7 -36 11 -251 11 -657 l0
-605 -430 0 -430 0 0 260 c0 213 -3 266 -15 290 -12 24 -69 56 -325 184 -356
177 -424 220 -536 331 -141 141 -236 307 -292 514 l-26 96 -4 770 c-2 590 0
780 9 814 29 105 142 162 253 129z"/>
<path d="M4583 3941 c-105 -39 -180 -107 -231 -211 l-27 -55 -3 -456 -3 -456
-60 -6 c-108 -10 -154 -41 -369 -251 -212 -208 -248 -233 -399 -280 -46 -15
-150 -38 -230 -52 -165 -29 -231 -49 -309 -96 -79 -48 -186 -166 -227 -252
-67 -140 -65 -118 -65 -904 l0 -709 26 -27 27 -26 577 0 577 0 27 26 26 27 0
288 0 288 181 92 c161 81 182 95 195 125 21 51 17 73 -20 110 -24 24 -43 34
-65 34 -20 0 -112 -40 -249 -109 -171 -86 -220 -115 -230 -135 -8 -19 -12
-105 -12 -286 l0 -260 -430 0 -430 0 0 604 c0 351 4 625 10 655 16 83 58 161
124 227 73 72 127 96 278 120 219 34 350 75 484 149 52 29 117 85 264 230 198
194 227 215 300 215 103 0 200 -97 200 -200 0 -77 -14 -96 -312 -396 -275
-277 -288 -292 -288 -328 0 -55 43 -96 101 -96 43 0 44 1 322 278 153 152 291
295 306 317 49 70 66 131 66 231 0 84 -2 95 -38 166 -25 52 -54 91 -88 122
-28 25 -55 46 -60 46 -6 0 -8 183 -7 458 3 425 4 460 22 495 39 78 137 122
223 98 61 -16 105 -50 129 -98 18 -36 19 -75 22 -763 4 -887 1 -916 -103
-1156 -48 -109 -48 -127 -8 -178 28 -35 85 -40 127 -12 33 21 90 138 130 265
56 178 57 187 54 1062 l-3 804 -29 60 c-38 77 -114 153 -191 190 -52 26 -73
30 -160 33 -79 2 -111 -2 -152 -17z"/>
<path d="M4541 1366 c-46 -26 -62 -80 -39 -133 19 -41 38 -52 89 -53 37 0 52
5 73 27 23 23 27 34 24 77 -3 45 -7 53 -37 73 -38 26 -74 29 -110 9z"/>
</g>
</svg>
